<?xml version="1.0" encoding="UTF-8"?>
<svg xmlns="http://www.w3.org/2000/svg" id="Ebene_1" data-name="Ebene 1" viewBox="0 0 182.56 80">
  <defs>
    <style>.cls-1{fill:#fff;}.cls-2{fill:#688ab0;}.cls-3{fill:#c1cadd;}</style>
  </defs>
  <title>CiiM-Header-Logo-white</title>
  <path class="cls-1" d="M137.07,56.35a1.39,1.39,0,0,0-1.42,1.42V79a1,1,0,0,0,1,1h4.65a1.38,1.38,0,0,0,1.41-1.42V57.77a1.39,1.39,0,0,0-1.41-1.42Zm-16.25,0a1.38,1.38,0,0,0-1.41,1.42V79a1,1,0,0,0,1,1h4.65a1.38,1.38,0,0,0,1.41-1.42V57.77a1.39,1.39,0,0,0-1.41-1.42ZM91.87,69.48V53.7a1.14,1.14,0,0,1,.35-.83l2.27-2.27a1.18,1.18,0,0,1,.83-.35h7.37a1.23,1.23,0,0,1,.83.37l2.15,2.13a1.39,1.39,0,0,0,2,0l3.3-3.3A1,1,0,0,0,111,48L107.83,45a5.75,5.75,0,0,0-4.16-1.76H94.34a5.89,5.89,0,0,0-4.16,1.72l-3.65,3.65a5.9,5.9,0,0,0-1.73,4.17V70.46a5.86,5.86,0,0,0,1.73,4.16l3.65,3.65A5.86,5.86,0,0,0,94.34,80h9.33a5.72,5.72,0,0,0,4.16-1.77l2.83-2.79a1.38,1.38,0,0,0,0-2l-3.29-3.29a1,1,0,0,0-1.42,0l-2.44,2.43a1.22,1.22,0,0,1-.83.36H95.32a1.17,1.17,0,0,1-.83-.34l-2.27-2.27a1.15,1.15,0,0,1-.35-.84M181.14,80a1.39,1.39,0,0,0,1.42-1.42V44.19a1,1,0,0,0-1-1h-4.65a2.36,2.36,0,0,0-2,1.28L167.53,59.9s-.61,1.28-1.22,0l-7.53-15.81a1.66,1.66,0,0,0-1.43-.9H152.7a1.39,1.39,0,0,0-1.42,1.41V79a1,1,0,0,0,1,1h4.66a1.38,1.38,0,0,0,1.41-1.42V61s0-1.42.61-.14l4.36,9.15a.91.91,0,0,0,.82.51h5.57a.91.91,0,0,0,.82-.51l4.35-9.15s.61-1.28.61.14V78.58A1.39,1.39,0,0,0,176.91,80Z"></path>
  <path class="cls-1" d="M63.79,63.38a.65.65,0,0,0,0,.91.63.63,0,0,0,.9,0,.65.65,0,0,0,0-.91.63.63,0,0,0-.9,0m-6-21.77a3.17,3.17,0,1,0,0-4.49,3.17,3.17,0,0,0,0,4.49m-.88,14.91a1.28,1.28,0,1,0,1.81,0,1.28,1.28,0,0,0-1.81,0m-3.61,4.72a.64.64,0,1,0,.91,0,.65.65,0,0,0-.91,0M50.06,49.65a1.92,1.92,0,1,0,2.71,0,1.93,1.93,0,0,0-2.71,0m-3.61,4.73a1.28,1.28,0,1,0,1.81,0,1.28,1.28,0,0,0-1.81,0m-4.39,8.07a.65.65,0,0,0,0,.91.63.63,0,0,0,.9,0,.65.65,0,0,0,0-.91.63.63,0,0,0-.9,0M39.58,47.51a1.92,1.92,0,1,0,2.72,0,1.93,1.93,0,0,0-2.72,0m-4.39,8.07a1.28,1.28,0,1,0,1.81,0,1.29,1.29,0,0,0-1.81,0M32.72,44.27a2.56,2.56,0,1,0,0-3.62,2.56,2.56,0,0,0,0,3.62M31.25,67a.64.64,0,1,0,.91,0,.67.67,0,0,0-.91,0M28.33,48.72a1.92,1.92,0,1,0,2.71,0,1.93,1.93,0,0,0-2.71,0M24.39,60.13a1.28,1.28,0,1,0,1.81,0,1.28,1.28,0,0,0-1.81,0m-3,14a.64.64,0,1,0,.9,0,.63.63,0,0,0-.9,0m-6.87-6.87a1.28,1.28,0,1,0,1.81,0,1.28,1.28,0,0,0-1.81,0M.75,53.52a2.56,2.56,0,1,0,3.62,0,2.56,2.56,0,0,0-3.62,0M7.23,42.35a3.17,3.17,0,1,0-4.49,0,3.19,3.19,0,0,0,4.49,0m3.1,18a1.92,1.92,0,1,0,0,2.72,1.93,1.93,0,0,0,0-2.72m.33-14a2.56,2.56,0,1,0,3.62,0,2.56,2.56,0,0,0-3.62,0m1.8-34a.65.65,0,0,0,0-.91.66.66,0,0,0-.91,0,.64.64,0,0,0,.91.91m5.87,21.89a3.17,3.17,0,1,0,0,4.49,3.17,3.17,0,0,0,0-4.49m1-15a1.28,1.28,0,1,0-1.81,0,1.28,1.28,0,0,0,1.81,0m.92,34a1.92,1.92,0,1,0,0,2.72,1.93,1.93,0,0,0,0-2.72m1.22-11.4a2.56,2.56,0,1,0,3.62,0,2.56,2.56,0,0,0-3.62,0m1.38-27.28a.63.63,0,0,0,0-.9.65.65,0,0,0-.91,0,.63.63,0,0,0,0,.9.65.65,0,0,0,.91,0m3.35,11.5a1.92,1.92,0,1,0-2.72,0,1.91,1.91,0,0,0,2.72,0m3.51-4.63a1.28,1.28,0,1,0-1.81,0,1.28,1.28,0,0,0,1.81,0m3.35,7.88a2.55,2.55,0,0,0-4,3,3.17,3.17,0,1,0,1,1,2.55,2.55,0,0,0,3-4.05m1-15.92a.63.63,0,0,0,0-.9.65.65,0,0,0-.91,0,.63.63,0,0,0,0,.9.65.65,0,0,0,.91,0m2.51,14.9a1.92,1.92,0,1,0-2.72,0,1.91,1.91,0,0,0,2.72,0m3.65,7.24a3.17,3.17,0,1,0,0,4.49,3.17,3.17,0,0,0,0-4.49m.7-15.27a1.28,1.28,0,1,0-1.81,0,1.28,1.28,0,0,0,1.81,0m2.51,11.28a2.56,2.56,0,1,0,0,3.62,2.56,2.56,0,0,0,0-3.62m1.14-22.4a.63.63,0,0,0,0-.9.65.65,0,0,0-.91,0,.63.63,0,0,0,0,.9.65.65,0,0,0,.91,0m3.22,18a1.92,1.92,0,1,0-2.72,0,1.91,1.91,0,0,0,2.72,0M51,38.54A3.16,3.16,0,0,0,46,42.23a2.56,2.56,0,1,0,1.39,1.38A3.17,3.17,0,0,0,51,38.54M51.44,16a1.28,1.28,0,1,0-1.81,0,1.28,1.28,0,0,0,1.81,0m3-13.92a.64.64,0,1,0-.91,0,.65.65,0,0,0,.91,0m.24,28.28a2.56,2.56,0,1,0,0,3.62,2.56,2.56,0,0,0,0-3.62m3.65-7.5a1.92,1.92,0,1,0-2.71,0,1.91,1.91,0,0,0,2.71,0M61.27,9a1.28,1.28,0,1,0-1.81,0,1.28,1.28,0,0,0,1.81,0m3.9,17.17a2.56,2.56,0,1,0,0,3.62,2.56,2.56,0,0,0,0-3.62m3-10.3a1.92,1.92,0,1,0-2.72,0,1.93,1.93,0,0,0,2.72,0m.77,17.66a3.17,3.17,0,1,0,4.49,0,3.17,3.17,0,0,0-4.49,0M75,19.08a2.56,2.56,0,1,0,0,3.62,2.56,2.56,0,0,0,0-3.62"></path>
  <path class="cls-1" d="M54,1a.66.66,0,0,0-.45.18.65.65,0,0,0,0,.91.64.64,0,0,0,.91,0,.65.65,0,0,0,0-.91A.67.67,0,0,0,54,1m.91,4.1A2.56,2.56,0,0,1,53.05.75a2.56,2.56,0,1,1,1.81,4.37M40,7.78a3.18,3.18,0,1,1,2.25-.93A3.16,3.16,0,0,1,40,7.78m21.26,3.11a1.91,1.91,0,0,1-1.36-.56,2,2,0,0,1-.56-1.48.65.65,0,0,0,.11.12,1.28,1.28,0,1,0,1.81-1.81l-.12-.1h.12a1.92,1.92,0,1,1,0,3.84m-49.9.95a.64.64,0,0,1,1-.78.62.62,0,0,1,.18.51.38.38,0,0,0-.09-.13.67.67,0,0,0-.91,0,.64.64,0,0,0-.18.4M47.81,15a2.56,2.56,0,1,1,1.81-.75,2.54,2.54,0,0,1-1.81.75m19.87,1.71a1.27,1.27,0,0,1-.78-.27,1.92,1.92,0,0,0,1.8-1.8,1.29,1.29,0,0,1-1,2.07M17.14,18.4a1.28,1.28,0,0,1,1.19-1.76,1.27,1.27,0,0,1,.9.38,1.28,1.28,0,0,1,.38.82,1.4,1.4,0,0,0-.29-.44,1.28,1.28,0,0,0-2.18,1m19.25.48A3.18,3.18,0,1,1,38.63,18a3.16,3.16,0,0,1-2.24.93m17.83,1.85a2,2,0,0,1-1.36-.56,1.93,1.93,0,0,1,0-2.72,1.93,1.93,0,0,1,2.72,0,1.93,1.93,0,0,1,0,2.72,2,2,0,0,1-1.36.56M14.06,22.62a.67.67,0,0,1-.46-.18.65.65,0,0,1,0-.91.64.64,0,0,1,.91,0,.65.65,0,0,1,0,.91.66.66,0,0,1-.45.18M22.92,25a2,2,0,0,1,.46-2,1.93,1.93,0,0,1,3.27,1.12,2,2,0,0,0-.46-.74A1.92,1.92,0,0,0,22.92,25m20.63.51a2.56,2.56,0,1,1,2.35-1.53,1.87,1.87,0,0,0-.83.49,1.91,1.91,0,0,0-.49.83,2.6,2.6,0,0,1-1,.21m17.08,1a1.26,1.26,0,0,1-.9-.37,1.28,1.28,0,0,1,0-1.81,1.27,1.27,0,0,1,.9-.38,1.28,1.28,0,1,1,0,2.56M20.47,29.68a1.28,1.28,0,1,1,0-2.56,1.26,1.26,0,0,1,.9.37,1.28,1.28,0,0,1,0,1.81,1.27,1.27,0,0,1-.9.38M50,31.24a1.89,1.89,0,0,1-1.36-.56A1.92,1.92,0,1,1,51.33,28a1.89,1.89,0,0,1,.48,1.88,2.54,2.54,0,0,0-.78.54,2.51,2.51,0,0,0-.53.78,1.93,1.93,0,0,1-.53.07M35.21,25a1.93,1.93,0,1,0,1.36.57A1.92,1.92,0,0,0,35.21,25m-6.48,6.54a2.56,2.56,0,0,1,2.42-3.38,2.61,2.61,0,0,1,1,.2A3.17,3.17,0,1,1,35,30.14a3.24,3.24,0,0,1-1.46-.35,2.94,2.94,0,0,1,.16.58,2.56,2.56,0,0,0-5,1.2m38.31.7a.66.66,0,0,1-.45-.18.65.65,0,0,1,0-.91.64.64,0,0,1,.91,0,.65.65,0,0,1,0,.91.67.67,0,0,1-.46.18M12.85,33.88a.6.6,0,0,1-.45-.19.63.63,0,0,1,0-.9.6.6,0,0,1,.45-.19.64.64,0,0,1,0,1.28m29.54,2.81a2.57,2.57,0,0,1-1.82-.75l-.11-.12-.09-.1-.14-.2a2.59,2.59,0,0,0,1.39.41A2.56,2.56,0,0,0,43.77,32a2.79,2.79,0,0,1,.43.34,2.56,2.56,0,0,1-1.81,4.37m14,.33a1.29,1.29,0,1,1,.9-.38,1.25,1.25,0,0,1-.9.38M35.72,40h0A3.18,3.18,0,0,1,38,34.6a3.13,3.13,0,0,1,2,.69l.11.09.16.15h0A3.17,3.17,0,0,0,35.72,40m-16.46.9a1.28,1.28,0,1,1,.91-.37,1.28,1.28,0,0,1-.91.37m43.53,1.86a.61.61,0,0,1-.45-.19.63.63,0,0,1,0-.9.61.61,0,0,1,.45-.19.64.64,0,1,1,0,1.28m-30.58.75a2.56,2.56,0,1,1,3.4-3.4,2.56,2.56,0,0,0-3.4,3.4M8.3,44.69a.64.64,0,1,1,.46-.19.63.63,0,0,1-.46.19M25.67,48a1.88,1.88,0,0,1-1.35-.57,1.85,1.85,0,0,1-.56-1.24,2.54,2.54,0,0,0,1.32-.7,2.59,2.59,0,0,0,.71-1.33A1.92,1.92,0,0,1,25.67,48m29.54.25a1.28,1.28,0,0,1,0-2.56,1.24,1.24,0,0,1,.9.37,1.26,1.26,0,0,1,0,1.81,1.25,1.25,0,0,1-.9.38M40.94,47a2,2,0,0,0-1.36.56,1.93,1.93,0,0,0,0,2.72,1.93,1.93,0,0,0,2.72,0A1.92,1.92,0,0,0,40.94,47m-.25,4.62a3.17,3.17,0,1,1,0-6.34,3.21,3.21,0,0,1,1.69.48A2.55,2.55,0,0,1,44.62,42a2.51,2.51,0,0,1,.76.12A2.43,2.43,0,0,0,45,42a2.56,2.56,0,0,0-1.81,4.37,2.52,2.52,0,0,0,1,.61,2.84,2.84,0,0,1-.79-.27,3.16,3.16,0,0,1-2.7,4.82m-26,.17a1.28,1.28,0,0,1-.91-.37,1.29,1.29,0,0,1-.37-.79,2.58,2.58,0,0,0,.84-.56,2.61,2.61,0,0,0,.55-.83,1.24,1.24,0,0,1,.79.37,1.28,1.28,0,0,1-.9,2.18M50.8,52.83a1.89,1.89,0,0,1-1.13-.55A1.93,1.93,0,0,1,51,49a2.17,2.17,0,0,1,.62.1h-.23a1.92,1.92,0,0,0-.62,3.74M.6,53.68a.75.75,0,0,1,.13-.18.83.83,0,0,1,.18-.13l-.16.15-.15.16m61,.33a.64.64,0,1,1,.46-.19.63.63,0,0,1-.46.19M32.09,55a2.57,2.57,0,0,1-2.52-3h.11a1.92,1.92,0,0,0,1.92-2,2,2,0,0,1,.49,0,2.56,2.56,0,0,1,0,5.12m25.26,3.57a1.24,1.24,0,0,1-.81-.37,1.28,1.28,0,0,1,0-1.81,1.27,1.27,0,0,1,.9-.38,1.33,1.33,0,0,1,.48.1h-.09a1.29,1.29,0,0,0-.91,2.19,1.44,1.44,0,0,0,.43.28m-36.22.18a1.91,1.91,0,0,1-1.36-.56,1.93,1.93,0,0,1-.53-1.72A1.9,1.9,0,0,0,20.76,55a1.55,1.55,0,0,1,.37,0,1.92,1.92,0,1,1,0,3.84M7.07,61.53a1.22,1.22,0,0,1-.38-.26A1.28,1.28,0,0,1,8.5,59.46a1.22,1.22,0,0,1,.26.38,1.81,1.81,0,0,0-1.14.55,1.86,1.86,0,0,0-.55,1.14m32.2,1.31a3.18,3.18,0,1,1,2.25-.93,3.16,3.16,0,0,1-2.25.93m24.59,1.55a.63.63,0,0,1-.46-.19.65.65,0,0,1,0-.91.67.67,0,0,1,.46-.18.62.62,0,0,1,.32.09.61.61,0,0,0-.39.18.65.65,0,0,0,0,.91l.12.1h0M27.54,65.85a2.56,2.56,0,0,1-2.37-3.54h.12a1.29,1.29,0,0,0,1.28-1.4,2.5,2.5,0,0,1,1-.19,2.56,2.56,0,0,1,0,5.12M14,68.7a2,2,0,0,1-1.36-.56,1.93,1.93,0,0,1,0-2.72,1.93,1.93,0,0,1,2.72,0A1.92,1.92,0,0,1,15.92,67a1.23,1.23,0,0,0-.53-.11,1.28,1.28,0,0,0-.91.37,1.29,1.29,0,0,0-.26,1.44H14M35.65,74A3.18,3.18,0,1,1,37.89,73a3.18,3.18,0,0,1-2.24.93m-15.23,1.8a2.56,2.56,0,1,1,2-.91.63.63,0,0,0-.13-.72.63.63,0,0,0-.9,0,.63.63,0,0,0,0,.9.61.61,0,0,0,.45.19.66.66,0,0,0,.27-.06,2.54,2.54,0,0,1-1.65.6"></path>
  <path class="cls-1" d="M54,2.3a.67.67,0,0,1-.45-.19.65.65,0,0,1,0-.91.67.67,0,0,1,.91,0,.65.65,0,0,1,0,.91A.68.68,0,0,1,54,2.3m6.42,7.05A1.29,1.29,0,0,1,59.46,9a.65.65,0,0,1-.11-.12,2,2,0,0,1,.56-1.24,1.9,1.9,0,0,1,1.24-.55l.12.1a1.29,1.29,0,0,1-.9,2.19m-48.45,2.8a.63.63,0,0,1-.46-.19.54.54,0,0,1-.09-.12.64.64,0,0,1,.18-.4.67.67,0,0,1,.91,0,.38.38,0,0,1,.09.13.61.61,0,0,1-.18.39.63.63,0,0,1-.45.19m55,4.25-.12-.11a1.28,1.28,0,0,1,1.81-1.81l.11.12a1.92,1.92,0,0,1-1.8,1.8M18.33,19.2a1.28,1.28,0,0,1-.91-.37,1.33,1.33,0,0,1-.28-.43,1.28,1.28,0,0,1,2.18-1,1.48,1.48,0,0,1,.29.43,1.28,1.28,0,0,1-.38,1,1.26,1.26,0,0,1-.9.37M74.1,22.44a.64.64,0,1,1,.45-.19.63.63,0,0,1-.45.19M44.58,25.26a1.91,1.91,0,0,1,.49-.83,1.87,1.87,0,0,1,.83-.49,2.38,2.38,0,0,1-.54.78,2.6,2.6,0,0,1-.78.54m-19.84,1a2,2,0,0,1-1.36-.56,2.13,2.13,0,0,1-.46-.74,1.93,1.93,0,0,1,3.27-1.6,2,2,0,0,1,.46.74,1.92,1.92,0,0,1-1.91,2.16m10.47,2.61a1.92,1.92,0,1,1,1.36-.56,1.91,1.91,0,0,1-1.36.56m15.29,2.3a2.51,2.51,0,0,1,.53-.78,2.54,2.54,0,0,1,.78-.54,1.89,1.89,0,0,1-.48.83,2,2,0,0,1-.83.49M31.15,33.31a2.56,2.56,0,0,1-1.81-.75,2.64,2.64,0,0,1-.61-1,2.56,2.56,0,0,1,5-1.2,2.57,2.57,0,0,1-2.54,2.94M40,35.38l-.11-.09.11.09m.42.44-.09-.1.09.1m1.16.11a2.59,2.59,0,0,1-1.39-.41A2.56,2.56,0,0,1,43.77,32a2.56,2.56,0,0,1-2.15,3.95m-14.74.8a2,2,0,0,1-1.36-.56,1.93,1.93,0,0,1,0-2.72,1.93,1.93,0,0,1,2.72,0,1.93,1.93,0,0,1,0,2.72,2,2,0,0,1-1.36.56M38,41A3.18,3.18,0,1,1,40.2,40,3.16,3.16,0,0,1,38,41M48.8,42.46a1.89,1.89,0,0,1-1.36-.56,1.93,1.93,0,1,1,1.36.56M33.29,43.78a2.54,2.54,0,0,1-1.08-.24,2.56,2.56,0,0,1,3.4-3.4,2.56,2.56,0,0,1-2.32,3.64m-9.53,2.4a1.88,1.88,0,0,1,.55-1.47,1.91,1.91,0,0,1,1.36-.56h.12a2.59,2.59,0,0,1-.71,1.33,2.54,2.54,0,0,1-1.32.7m20.87.88a2.28,2.28,0,0,1-.45,0,2.52,2.52,0,0,1-1-.61A2.56,2.56,0,0,1,45,42a2.43,2.43,0,0,1,.38,0,2.55,2.55,0,0,1-.75,5M13.44,50.58a1.27,1.27,0,0,1,1.28-1.4h.11a2.61,2.61,0,0,1-.55.83,2.58,2.58,0,0,1-.84.56m27.5.21a2,2,0,0,1-1.36-.56,1.93,1.93,0,0,1,0-2.72,1.93,1.93,0,0,1,2.72,0,1.92,1.92,0,0,1-1.36,3.28M29.68,52h-.11a2.52,2.52,0,0,1,.71-1.33A2.56,2.56,0,0,1,31.6,50a1.92,1.92,0,0,1-1.92,2M51,52.84H50.8a1.92,1.92,0,0,1,.61-3.74h.24a2.13,2.13,0,0,1,.74.46A1.92,1.92,0,0,1,51,52.84M1.18,54.59a.64.64,0,0,1-.58-.91l.15-.16.16-.15a.66.66,0,0,1,.27-.06.64.64,0,0,1,.45.19.64.64,0,0,1-.45,1.09m18.06,1.92a1.89,1.89,0,0,1,.53-1,1.86,1.86,0,0,1,1-.53,1.91,1.91,0,0,1-.52,1,2,2,0,0,1-1,.53m38.2,2.11h-.09a1.44,1.44,0,0,1-.43-.28,1.29,1.29,0,0,1,.91-2.19h.09a1.27,1.27,0,0,1,.43,2.09,1.29,1.29,0,0,1-.91.38m-49.84,3a1.25,1.25,0,0,1-.54-.12,1.88,1.88,0,0,1,.56-1.14,1.81,1.81,0,0,1,1.14-.55A1.28,1.28,0,0,1,7.6,61.65m17.69.67h-.12a2.54,2.54,0,0,1,.56-.83,2.43,2.43,0,0,1,.84-.56,1.29,1.29,0,0,1-1.28,1.4m38.62,2.07-.12-.1a.65.65,0,0,1,0-.91.61.61,0,0,1,.39-.18.6.6,0,0,1,.13.09.65.65,0,0,1,0,.91.68.68,0,0,1-.4.19m-49.69,4.3a1.29,1.29,0,0,1,.26-1.44,1.28,1.28,0,0,1,.91-.37,1.23,1.23,0,0,1,.53.11,1.92,1.92,0,0,1-1.7,1.7m7.58,6.52a.6.6,0,0,1-.45-.19.63.63,0,0,1,0-.9.6.6,0,0,1,.45-.19.61.61,0,0,1,.45.19.63.63,0,0,1,.13.72l-.15.16-.16.15a.66.66,0,0,1-.27.06"></path>
  <path class="cls-1" d="M122.81,52.59a3.89,3.89,0,1,0-3.89-3.89,3.89,3.89,0,0,0,3.89,3.89"></path>
  <path class="cls-1" d="M139,52.59a3.89,3.89,0,1,0-3.88-3.89A3.89,3.89,0,0,0,139,52.59"></path>
  <path class="cls-1" d="M137.93,56.35a2.24,2.24,0,0,0-2.28,2.29V79a1,1,0,0,0,1,1h3.78a2.23,2.23,0,0,0,2.28-2.28V58.35a2,2,0,0,0-2-2Zm-16.24,0a2.24,2.24,0,0,0-2.28,2.29V79a1,1,0,0,0,1,1h3.78a2.23,2.23,0,0,0,2.28-2.28V58.35a2,2,0,0,0-2-2ZM91.87,69.48V53.7a1.18,1.18,0,0,1,.35-.83l2.27-2.27a1.18,1.18,0,0,1,.83-.35h7.37a1.23,1.23,0,0,1,.83.37l1.73,1.72a2,2,0,0,0,2.84,0L111,49.45A1,1,0,0,0,111,48L107.83,45a5.75,5.75,0,0,0-4.16-1.76H94.34a5.89,5.89,0,0,0-4.16,1.72l-3.65,3.65a5.9,5.9,0,0,0-1.73,4.17V70.46a5.86,5.86,0,0,0,1.73,4.16l3.65,3.65A5.86,5.86,0,0,0,94.34,80h9.33a5.72,5.72,0,0,0,4.16-1.77l2.42-2.38a2,2,0,0,0,0-2.82l-2.88-2.88a1,1,0,0,0-1.42,0l-2.44,2.43a1.22,1.22,0,0,1-.83.36H95.32a1.17,1.17,0,0,1-.83-.34l-2.27-2.27a1.19,1.19,0,0,1-.35-.84M180.28,80a2.23,2.23,0,0,0,2.28-2.28V44.19a1,1,0,0,0-1-1h-3.78a3.81,3.81,0,0,0-3.27,2.06L167.9,59.12s-1,2.06-2,0l-7.16-15a1.66,1.66,0,0,0-1.43-.9h-3.78a2.24,2.24,0,0,0-2.29,2.28V79a1,1,0,0,0,1,1h3.79a2.23,2.23,0,0,0,2.28-2.28V61.91s0-2.29,1-.23l4,8.37a.91.91,0,0,0,.82.51h5.57a.91.91,0,0,0,.82-.51l4-8.37s1-2.06,1,.23V78a2,2,0,0,0,2,2Z"></path>
  <path class="cls-2" d="M63.79,63.38a.65.65,0,0,0,0,.91.63.63,0,0,0,.9,0,.65.65,0,0,0,0-.91.63.63,0,0,0-.9,0m-6-21.77a3.17,3.17,0,1,0,0-4.49,3.17,3.17,0,0,0,0,4.49m-.88,14.91a1.28,1.28,0,1,0,1.81,0,1.28,1.28,0,0,0-1.81,0m-3.61,4.72a.64.64,0,1,0,.91,0,.67.67,0,0,0-.91,0M50.06,49.65a1.92,1.92,0,1,0,2.71,0,1.93,1.93,0,0,0-2.71,0m-3.61,4.73a1.28,1.28,0,1,0,1.81,0,1.28,1.28,0,0,0-1.81,0m-4.39,8.07a.65.65,0,0,0,0,.91.63.63,0,0,0,.9,0,.65.65,0,0,0,0-.91.63.63,0,0,0-.9,0M39.58,47.51a1.92,1.92,0,1,0,2.72,0,1.93,1.93,0,0,0-2.72,0m-4.39,8.08a1.28,1.28,0,1,0,1.81,0,1.28,1.28,0,0,0-1.81,0M32.72,44.27a2.56,2.56,0,1,0,0-3.62,2.56,2.56,0,0,0,0,3.62M31.25,67a.63.63,0,0,0,0,.9.65.65,0,0,0,.91,0,.63.63,0,0,0,0-.9.65.65,0,0,0-.91,0M28.33,48.72a1.92,1.92,0,1,0,2.71,0,1.93,1.93,0,0,0-2.71,0M24.39,60.13a1.28,1.28,0,1,0,1.81,0,1.28,1.28,0,0,0-1.81,0m-3,14a.64.64,0,1,0,.9,0,.63.63,0,0,0-.9,0m-6.87-6.87a1.28,1.28,0,1,0,1.81,0,1.28,1.28,0,0,0-1.81,0M.75,53.52a2.56,2.56,0,1,0,3.62,0,2.56,2.56,0,0,0-3.62,0M7.23,42.35a3.17,3.17,0,1,0-4.49,0,3.19,3.19,0,0,0,4.49,0m3.1,18a1.92,1.92,0,1,0,0,2.71,1.91,1.91,0,0,0,0-2.71m.33-14a2.56,2.56,0,1,0,3.62,0,2.56,2.56,0,0,0-3.62,0m1.8-34a.65.65,0,0,0,0-.91.66.66,0,0,0-.91,0,.64.64,0,0,0,.91.91m5.87,21.89a3.17,3.17,0,1,0,0,4.49,3.17,3.17,0,0,0,0-4.49m1-15a1.28,1.28,0,1,0-1.81,0,1.28,1.28,0,0,0,1.81,0m.92,34a1.92,1.92,0,1,0,0,2.72,1.94,1.94,0,0,0,0-2.72m1.22-11.4a2.56,2.56,0,1,0,3.62,0,2.56,2.56,0,0,0-3.62,0m1.38-27.28a.63.63,0,0,0,0-.9.65.65,0,0,0-.91,0,.63.63,0,0,0,0,.9.65.65,0,0,0,.91,0m3.35,11.5a1.92,1.92,0,1,0-2.72,0,1.91,1.91,0,0,0,2.72,0m3.51-4.63a1.28,1.28,0,1,0-1.81,0,1.28,1.28,0,0,0,1.81,0m3.35,7.88a2.55,2.55,0,0,0-4,3,3.17,3.17,0,1,0,1,1,2.55,2.55,0,0,0,3-4.05m1-15.92a.63.63,0,0,0,0-.9.65.65,0,0,0-.91,0,.63.63,0,0,0,0,.9.65.65,0,0,0,.91,0m2.51,14.9a1.92,1.92,0,1,0-2.72,0,1.91,1.91,0,0,0,2.72,0m3.65,7.24a3.17,3.17,0,1,0,0,4.49,3.17,3.17,0,0,0,0-4.49m.7-15.27a1.28,1.28,0,1,0-1.81,0,1.28,1.28,0,0,0,1.81,0m2.51,11.28a2.56,2.56,0,1,0,0,3.62,2.56,2.56,0,0,0,0-3.62m1.14-22.4a.63.63,0,0,0,0-.9.65.65,0,0,0-.91,0,.63.63,0,0,0,0,.9.65.65,0,0,0,.91,0m3.22,18a1.92,1.92,0,1,0-2.72,0,1.91,1.91,0,0,0,2.72,0M51,38.54A3.16,3.16,0,0,0,46,42.23a2.56,2.56,0,1,0,1.39,1.38A3.17,3.17,0,0,0,51,38.54M51.44,16a1.28,1.28,0,1,0-1.81,0,1.28,1.28,0,0,0,1.81,0m3-13.92a.64.64,0,1,0-.91,0,.65.65,0,0,0,.91,0m.24,28.28a2.56,2.56,0,1,0,0,3.62,2.56,2.56,0,0,0,0-3.62m3.65-7.5a1.92,1.92,0,1,0-2.71,0,1.91,1.91,0,0,0,2.71,0M61.27,9a1.28,1.28,0,1,0-1.81,0,1.28,1.28,0,0,0,1.81,0m3.9,17.17a2.56,2.56,0,1,0,0,3.62,2.56,2.56,0,0,0,0-3.62m3-10.3a1.92,1.92,0,1,0-2.72,0,1.93,1.93,0,0,0,2.72,0m.77,17.66a3.17,3.17,0,1,0,4.49,0,3.17,3.17,0,0,0-4.49,0M75,19.08a2.56,2.56,0,1,0,0,3.62,2.56,2.56,0,0,0,0-3.62"></path>
  <path class="cls-3" d="M54,1a.66.66,0,0,0-.45.18.65.65,0,0,0,0,.91.64.64,0,0,0,.91,0,.65.65,0,0,0,0-.91A.67.67,0,0,0,54,1m.91,4.1A2.56,2.56,0,0,1,53.05.75a2.56,2.56,0,1,1,1.81,4.37M40,7.78a3.18,3.18,0,1,1,2.25-.93A3.16,3.16,0,0,1,40,7.78m21.26,3.11a1.91,1.91,0,0,1-1.36-.56,2,2,0,0,1-.56-1.48.65.65,0,0,0,.11.12,1.28,1.28,0,1,0,1.81-1.81l-.12-.1h.12a1.92,1.92,0,1,1,0,3.84m-49.9.95a.64.64,0,0,1,1-.78.62.62,0,0,1,.18.51.38.38,0,0,0-.09-.13.67.67,0,0,0-.91,0,.64.64,0,0,0-.18.4M47.81,15a2.56,2.56,0,1,1,1.81-.75,2.54,2.54,0,0,1-1.81.75m19.87,1.71a1.27,1.27,0,0,1-.78-.27,1.92,1.92,0,0,0,1.8-1.8,1.29,1.29,0,0,1-1,2.07M17.14,18.4a1.28,1.28,0,0,1,1.19-1.76,1.27,1.27,0,0,1,.9.38,1.28,1.28,0,0,1,.38.82,1.4,1.4,0,0,0-.29-.44,1.28,1.28,0,0,0-2.18,1m19.25.48A3.18,3.18,0,1,1,38.63,18a3.16,3.16,0,0,1-2.24.93m17.83,1.85a2,2,0,0,1-1.36-.56,1.93,1.93,0,0,1,0-2.72,1.93,1.93,0,0,1,2.72,0,1.93,1.93,0,0,1,0,2.72,2,2,0,0,1-1.36.56M14.06,22.62a.67.67,0,0,1-.46-.18.65.65,0,0,1,0-.91.64.64,0,0,1,.91,0,.65.65,0,0,1,0,.91.66.66,0,0,1-.45.18M22.92,25a2,2,0,0,1,.46-2,1.93,1.93,0,0,1,3.27,1.12,2,2,0,0,0-.46-.74A1.92,1.92,0,0,0,22.92,25m20.63.51a2.56,2.56,0,1,1,2.35-1.53,1.87,1.87,0,0,0-.83.49,1.91,1.91,0,0,0-.49.83,2.6,2.6,0,0,1-1,.21m17.08,1a1.26,1.26,0,0,1-.9-.37,1.28,1.28,0,0,1,0-1.81,1.27,1.27,0,0,1,.9-.38,1.28,1.28,0,1,1,0,2.56M20.47,29.68a1.28,1.28,0,1,1,0-2.56,1.26,1.26,0,0,1,.9.37,1.28,1.28,0,0,1,0,1.81,1.27,1.27,0,0,1-.9.38M50,31.24a1.89,1.89,0,0,1-1.36-.56A1.92,1.92,0,1,1,51.33,28a1.89,1.89,0,0,1,.48,1.88,2.54,2.54,0,0,0-.78.54,2.51,2.51,0,0,0-.53.78,1.93,1.93,0,0,1-.53.07M35.21,25a1.93,1.93,0,1,0,1.36.57A1.92,1.92,0,0,0,35.21,25m-6.48,6.54a2.56,2.56,0,0,1,2.42-3.38,2.61,2.61,0,0,1,1,.2A3.17,3.17,0,1,1,35,30.14a3.24,3.24,0,0,1-1.46-.35,2.94,2.94,0,0,1,.16.58,2.56,2.56,0,0,0-5,1.2m38.31.7a.66.66,0,0,1-.45-.18.65.65,0,0,1,0-.91.64.64,0,0,1,.91,0,.65.65,0,0,1,0,.91.67.67,0,0,1-.46.18M12.85,33.88a.6.6,0,0,1-.45-.19.63.63,0,0,1,0-.9.6.6,0,0,1,.45-.19.64.64,0,0,1,0,1.28m29.54,2.81a2.57,2.57,0,0,1-1.82-.75l-.11-.12-.09-.1-.14-.2a2.59,2.59,0,0,0,1.39.41A2.56,2.56,0,0,0,43.77,32a2.79,2.79,0,0,1,.43.34,2.56,2.56,0,0,1-1.81,4.37m14,.33a1.29,1.29,0,1,1,.9-.38,1.25,1.25,0,0,1-.9.38M35.72,40h0A3.18,3.18,0,0,1,38,34.6a3.13,3.13,0,0,1,2,.69l.11.09.16.15h0A3.17,3.17,0,0,0,35.72,40m-16.46.9a1.28,1.28,0,1,1,.91-.37,1.28,1.28,0,0,1-.91.37m43.53,1.86a.61.61,0,0,1-.45-.19.63.63,0,0,1,0-.9.61.61,0,0,1,.45-.19.64.64,0,1,1,0,1.28m-30.58.75a2.56,2.56,0,1,1,3.4-3.4,2.56,2.56,0,0,0-3.4,3.4M8.3,44.69a.64.64,0,1,1,.46-.19.63.63,0,0,1-.46.19M25.67,48a1.88,1.88,0,0,1-1.35-.57,1.85,1.85,0,0,1-.56-1.24,2.54,2.54,0,0,0,1.32-.7,2.59,2.59,0,0,0,.71-1.33A1.92,1.92,0,0,1,25.67,48m29.54.25a1.28,1.28,0,0,1,0-2.56,1.24,1.24,0,0,1,.9.37,1.29,1.29,0,0,1-.9,2.19M40.94,47a2,2,0,0,0-1.36.56,1.93,1.93,0,0,0,0,2.72,1.93,1.93,0,0,0,2.72,0A1.92,1.92,0,0,0,40.94,47m-.25,4.62a3.17,3.17,0,1,1,0-6.34,3.21,3.21,0,0,1,1.69.48A2.55,2.55,0,0,1,44.62,42a2.51,2.51,0,0,1,.76.12A2.43,2.43,0,0,0,45,42a2.56,2.56,0,0,0-1.81,4.37,2.52,2.52,0,0,0,1,.61,2.84,2.84,0,0,1-.79-.27,3.16,3.16,0,0,1-2.7,4.82m-26,.17a1.28,1.28,0,0,1-.91-.37,1.29,1.29,0,0,1-.37-.79,2.58,2.58,0,0,0,.84-.56,2.61,2.61,0,0,0,.55-.83,1.24,1.24,0,0,1,.79.37,1.28,1.28,0,0,1-.9,2.18M50.8,52.83a1.89,1.89,0,0,1-1.13-.55A1.93,1.93,0,0,1,51,49a2.17,2.17,0,0,1,.62.1h-.23a1.92,1.92,0,0,0-.62,3.74M.6,53.68a.75.75,0,0,1,.13-.18.83.83,0,0,1,.18-.13l-.16.15-.15.16m61,.33a.64.64,0,1,1,.46-.19.63.63,0,0,1-.46.19M32.09,55a2.57,2.57,0,0,1-2.52-3h.11a1.92,1.92,0,0,0,1.92-2,2,2,0,0,1,.49,0,2.56,2.56,0,0,1,0,5.12m25.26,3.57a1.24,1.24,0,0,1-.81-.37,1.28,1.28,0,0,1,0-1.81,1.27,1.27,0,0,1,.9-.38,1.33,1.33,0,0,1,.48.1h-.09a1.29,1.29,0,0,0-.91,2.19,1.44,1.44,0,0,0,.43.28m-36.22.18a1.91,1.91,0,0,1-1.36-.56,1.93,1.93,0,0,1-.53-1.72A1.9,1.9,0,0,0,20.76,55a1.55,1.55,0,0,1,.37,0,1.92,1.92,0,1,1,0,3.84M7.07,61.53a1.22,1.22,0,0,1-.38-.26A1.28,1.28,0,0,1,8.5,59.46a1.22,1.22,0,0,1,.26.38,1.81,1.81,0,0,0-1.14.55,1.86,1.86,0,0,0-.55,1.14m32.2,1.31a3.18,3.18,0,1,1,2.25-.93,3.16,3.16,0,0,1-2.25.93m24.59,1.55a.63.63,0,0,1-.46-.19.65.65,0,0,1,0-.91.67.67,0,0,1,.46-.18.62.62,0,0,1,.32.09.61.61,0,0,0-.39.18.65.65,0,0,0,0,.91l.12.1h0M27.54,65.85a2.56,2.56,0,0,1-2.37-3.54h.12a1.29,1.29,0,0,0,1.28-1.4,2.5,2.5,0,0,1,1-.19,2.56,2.56,0,0,1,0,5.12M14,68.7a2,2,0,0,1-1.36-.56,1.93,1.93,0,0,1,0-2.72,1.93,1.93,0,0,1,2.72,0A1.92,1.92,0,0,1,15.92,67a1.23,1.23,0,0,0-.53-.11,1.28,1.28,0,0,0-.91.37,1.29,1.29,0,0,0-.26,1.44H14M35.65,74A3.18,3.18,0,1,1,37.89,73a3.18,3.18,0,0,1-2.24.93m-15.23,1.8a2.56,2.56,0,1,1,2-.91.63.63,0,0,0-.13-.72.63.63,0,0,0-.9,0,.63.63,0,0,0,0,.9.61.61,0,0,0,.45.19.66.66,0,0,0,.27-.06,2.54,2.54,0,0,1-1.65.6"></path>
  <path class="cls-1" d="M54,2.3a.67.67,0,0,1-.45-.19.65.65,0,0,1,0-.91.67.67,0,0,1,.91,0,.65.65,0,0,1,0,.91A.68.68,0,0,1,54,2.3m6.42,7.05A1.29,1.29,0,0,1,59.46,9a.65.65,0,0,1-.11-.12,2,2,0,0,1,.56-1.24,1.9,1.9,0,0,1,1.24-.55l.12.1a1.29,1.29,0,0,1-.9,2.19m-48.45,2.8a.63.63,0,0,1-.46-.19.54.54,0,0,1-.09-.12.64.64,0,0,1,.18-.4.67.67,0,0,1,.91,0,.38.38,0,0,1,.09.13.61.61,0,0,1-.18.39.63.63,0,0,1-.45.19m55,4.25-.12-.11a1.28,1.28,0,0,1,1.81-1.81l.11.12a1.92,1.92,0,0,1-1.8,1.8M18.33,19.2a1.28,1.28,0,0,1-.91-.37,1.33,1.33,0,0,1-.28-.43,1.28,1.28,0,0,1,2.18-1,1.48,1.48,0,0,1,.29.43,1.28,1.28,0,0,1-.38,1,1.26,1.26,0,0,1-.9.37M74.1,22.44a.64.64,0,1,1,.45-.19.63.63,0,0,1-.45.19M44.58,25.26a1.91,1.91,0,0,1,.49-.83,1.87,1.87,0,0,1,.83-.49,2.38,2.38,0,0,1-.54.78,2.6,2.6,0,0,1-.78.54m-19.84,1a2,2,0,0,1-1.36-.56,2.13,2.13,0,0,1-.46-.74,1.93,1.93,0,0,1,3.27-1.6,2,2,0,0,1,.46.74,1.92,1.92,0,0,1-1.91,2.16m10.47,2.61a1.92,1.92,0,1,1,1.36-.56,1.91,1.91,0,0,1-1.36.56m15.29,2.3a2.51,2.51,0,0,1,.53-.78,2.54,2.54,0,0,1,.78-.54,1.89,1.89,0,0,1-.48.83,2,2,0,0,1-.83.49M31.15,33.31a2.56,2.56,0,0,1-1.81-.75,2.64,2.64,0,0,1-.61-1,2.56,2.56,0,0,1,.7-2.25,2.56,2.56,0,0,1,3.62,0,2.57,2.57,0,0,1,.64,1.05,2.57,2.57,0,0,1-2.54,2.94M40,35.38l-.11-.09.11.09m.42.44-.09-.1.09.1m1.16.11a2.59,2.59,0,0,1-1.39-.41A2.56,2.56,0,0,1,43.77,32a2.56,2.56,0,0,1-2.15,3.95m-14.74.8a2,2,0,0,1-1.36-.56,1.93,1.93,0,0,1,0-2.72,1.93,1.93,0,0,1,2.72,0,1.93,1.93,0,0,1,0,2.72,2,2,0,0,1-1.36.56M38,41A3.18,3.18,0,1,1,40.2,40,3.16,3.16,0,0,1,38,41M48.8,42.46a1.89,1.89,0,0,1-1.36-.56,1.93,1.93,0,1,1,1.36.56M33.29,43.78a2.54,2.54,0,0,1-1.08-.24,2.56,2.56,0,0,1,3.4-3.4,2.56,2.56,0,0,1-2.32,3.64m-9.53,2.4a1.92,1.92,0,0,1,1.91-2h.12a2.59,2.59,0,0,1-.71,1.33,2.54,2.54,0,0,1-1.32.7m20.87.88a2.28,2.28,0,0,1-.45,0,2.52,2.52,0,0,1-1-.61A2.56,2.56,0,0,1,45,42a2.43,2.43,0,0,1,.38,0,2.55,2.55,0,0,1-.75,5M13.44,50.58a1.27,1.27,0,0,1,1.28-1.4h.11a2.61,2.61,0,0,1-.55.83,2.58,2.58,0,0,1-.84.56m27.5.21a2,2,0,0,1-1.36-.56,1.93,1.93,0,0,1,0-2.72,1.93,1.93,0,0,1,2.72,0,1.92,1.92,0,0,1-1.36,3.28M29.68,52h-.11a2.52,2.52,0,0,1,.71-1.33A2.56,2.56,0,0,1,31.6,50a1.92,1.92,0,0,1-1.92,2M51,52.84H50.8a1.92,1.92,0,0,1,.61-3.74h.24a2.13,2.13,0,0,1,.74.46A1.92,1.92,0,0,1,51,52.84M1.18,54.59a.64.64,0,0,1-.58-.91l.15-.16.16-.15a.66.66,0,0,1,.27-.06.64.64,0,0,1,.45.19.64.64,0,0,1-.45,1.09m18.06,1.92a1.89,1.89,0,0,1,.53-1,1.86,1.86,0,0,1,1-.53,1.91,1.91,0,0,1-.52,1,2,2,0,0,1-1,.53m38.2,2.11h-.09a1.44,1.44,0,0,1-.43-.28,1.29,1.29,0,0,1,.91-2.19h.09a1.27,1.27,0,0,1,.43,2.09,1.29,1.29,0,0,1-.91.38m-49.84,3a1.25,1.25,0,0,1-.54-.12,1.88,1.88,0,0,1,.56-1.14,1.81,1.81,0,0,1,1.14-.55A1.28,1.28,0,0,1,7.6,61.65m17.69.67h-.12a2.54,2.54,0,0,1,.56-.83,2.43,2.43,0,0,1,.84-.56,1.29,1.29,0,0,1-1.28,1.4m38.62,2.07-.12-.1a.65.65,0,0,1,0-.91.61.61,0,0,1,.39-.18.6.6,0,0,1,.13.09.65.65,0,0,1,0,.91.68.68,0,0,1-.4.19m-49.69,4.3a1.29,1.29,0,0,1,.26-1.44,1.28,1.28,0,0,1,.91-.37,1.23,1.23,0,0,1,.53.11,1.92,1.92,0,0,1-1.7,1.7m7.58,6.52a.6.6,0,0,1-.45-.19.63.63,0,0,1,0-.9.6.6,0,0,1,.45-.19.61.61,0,0,1,.45.19.63.63,0,0,1,.13.72l-.15.16-.16.15a.66.66,0,0,1-.27.06"></path>
  <path class="cls-3" d="M122.81,52.59a3.89,3.89,0,1,0-3.89-3.88,3.88,3.88,0,0,0,3.89,3.88"></path>
  <path class="cls-2" d="M139,52.59a3.89,3.89,0,1,0-3.88-3.88A3.89,3.89,0,0,0,139,52.59"></path>
</svg>
