<?xml version="1.0" standalone="no"?><!DOCTYPE svg PUBLIC "-//W3C//DTD SVG 1.1//EN" "http://www.w3.org/Graphics/SVG/1.1/DTD/svg11.dtd"><svg t="1720573806196" class="icon" viewBox="0 0 1024 1024" version="1.1" xmlns="http://www.w3.org/2000/svg" p-id="11791" xmlns:xlink="http://www.w3.org/1999/xlink" width="1024" height="1024"><path d="M341.333333 85.333333h341.333334a256 256 0 0 1 256 256v341.333334a256 256 0 0 1-256 256H341.333333a256 256 0 0 1-256-256V341.333333a256 256 0 0 1 256-256z m0 85.333334a170.666667 170.666667 0 0 0-170.666666 170.666666v341.333334a170.666667 170.666667 0 0 0 170.666666 170.666666h341.333334a170.666667 170.666667 0 0 0 170.666666-170.666666V341.333333a170.666667 170.666667 0 0 0-170.666666-170.666666H341.333333z m170.666667 554.666666a213.333333 213.333333 0 1 1 0-426.666666 213.333333 213.333333 0 0 1 0 426.666666z m0-85.333333a128 128 0 1 0 0-256 128 128 0 0 0 0 256z m213.333333-298.666667a42.666667 42.666667 0 1 1 0-85.333333 42.666667 42.666667 0 0 1 0 85.333333z" p-id="11792" fill="#ffffff"></path></svg>