<?xml version="1.0" standalone="no"?><!DOCTYPE svg PUBLIC "-//W3C//DTD SVG 1.1//EN" "http://www.w3.org/Graphics/SVG/1.1/DTD/svg11.dtd"><svg t="1720574768433" class="icon" viewBox="0 0 1024 1024" version="1.1" xmlns="http://www.w3.org/2000/svg" p-id="14898" xmlns:xlink="http://www.w3.org/1999/xlink" width="1024" height="1024"><path d="M231.234 511.229c-28.959-12.87-54.7-19.305-62.742-27.348-22.523-24.132 17.696-45.045 35.394-35.394 48.265 25.741 75.615 6.434 75.615 6.434v-178.578c0-57.917 64.353-176.967 233.277-176.967 167.315 0 231.666 120.659 231.666 176.967v172.142s14.478 12.87 38.61 12.87 40.22-14.478 56.308-12.87c16.090 1.609 41.828 22.523 3.219 46.657-38.61 22.523-88.485 11.263-88.485 67.569s86.874 149.619 180.186 181.793c93.309 33.786-99.747 61.134-99.747 61.134s-6.434 56.308-14.478 62.742c-3.219 3.219-33.786-16.090-98.137-12.87-62.742 4.827-98.137 83.658-209.145 83.658s-130.311-69.178-196.274-83.658c-65.962-14.478-106.181 11.263-112.617 6.434-6.434-4.827-3.219-56.308-19.305-56.308s-185.012-40.22-88.485-61.134c96.527-20.914 175.359-146.399 175.359-181.793 1.609-28.959-9.653-38.61-40.22-51.483z" fill="#ffffff" p-id="14899"></path></svg>